
<svg width="48" height="35" viewBox="0 0 60 35" fill="none" xmlns="http://www.w3.org/2000/svg">
<path d="M1.03492 16.7524L2.63241 15.1594L15.2275 27.7901C15.3628 27.9259 15.4387 28.1098 15.4384 28.3014C15.4381 28.4931 15.3617 28.6768 15.226 28.8121L13.6285 30.4051C13.4928 30.5404 13.3089 30.6163 13.1172 30.6161C12.9256 30.6158 12.7419 30.5394 12.6065 30.4037L1.03203 18.7964C0.761365 18.525 0.609609 18.1571 0.610151 17.7738C0.610693 17.3905 0.763488 17.0231 1.03492 16.7524Z" fill="url(#paint0_linear)"/>
<path d="M2.6153 20.3931L1.02045 18.7938C0.749776 18.5223 0.598021 18.1545 0.598562 17.7712C0.599104 17.3878 0.7519 17.0204 1.02334 16.7497L12.8175 4.98884C12.9533 4.8535 13.1372 4.77763 13.3288 4.7779C13.5205 4.77817 13.7042 4.85457 13.8395 4.99028L15.4363 6.59155C15.5716 6.72726 15.6475 6.91119 15.6472 7.10285C15.647 7.29451 15.5706 7.47822 15.4348 7.61355L2.61719 20.395L2.6153 20.3931Z" fill="#50E6FF"/>
<path d="M35.0059 30.4048L33.4065 28.8099C33.2708 28.6746 33.1944 28.4909 33.1941 28.2992C33.1938 28.1075 33.2697 27.9236 33.405 27.7879L46.0001 15.1572L47.5995 16.752C47.8709 17.0227 48.0237 17.3901 48.0242 17.7734C48.0248 18.1568 47.873 18.5246 47.6024 18.796L36.0279 30.4033C35.8925 30.539 35.7088 30.6154 35.5172 30.6157C35.3255 30.616 35.1416 30.5401 35.0059 30.4048Z" fill="url(#paint1_linear)"/>
<path d="M33.1802 6.60253L34.7751 5.00316C34.9104 4.86744 35.0941 4.79104 35.2858 4.79077C35.4774 4.7905 35.6613 4.86638 35.7971 5.00171L47.5913 16.7626C47.8627 17.0333 48.0155 17.4007 48.016 17.784C48.0166 18.1674 47.8648 18.5352 47.5942 18.8066L45.9993 20.406L33.1892 7.63207C33.0535 7.49673 32.9771 7.31303 32.9768 7.12137C32.9765 6.9297 33.0524 6.74578 33.1878 6.61007L33.1802 6.60253Z" fill="#50E6FF"/>
<path d="M31.168 1.03264L28.6156 0.215514C28.3449 0.128849 28.0552 0.278046 27.9686 0.548755L17.5638 33.0492C17.4772 33.3199 17.6264 33.6096 17.8971 33.6963L20.4495 34.5134C20.7202 34.6001 21.0099 34.4509 21.0966 34.1802L31.5013 1.67972C31.5879 1.40901 31.4387 1.1193 31.168 1.03264Z" fill="url(#paint2_linear)"/>
<defs>
<linearGradient id="paint0_linear" x1="8.27452" y1="16.4574" x2="7.73852" y2="30.5187" gradientUnits="userSpaceOnUse">
<stop stop-color="#0078D4"/>
<stop offset="0.325" stop-color="#1B84DC"/>
<stop offset="1" stop-color="#5EA0EF"/>
</linearGradient>
<linearGradient id="paint1_linear" x1="40.8122" y1="17.7397" x2="40.2735" y2="31.801" gradientUnits="userSpaceOnUse">
<stop stop-color="#0078D4"/>
<stop offset="0.325" stop-color="#1B84DC"/>
<stop offset="1" stop-color="#5EA0EF"/>
</linearGradient>
<linearGradient id="paint2_linear" x1="19.7465" y1="35.9848" x2="28.6185" y2="1.47281" gradientUnits="userSpaceOnUse">
<stop stop-color="#0078D4"/>
<stop offset="0.325" stop-color="#1B84DC"/>
<stop offset="1" stop-color="#5EA0EF"/>
</linearGradient>
</defs>
</svg>