<svg width="336" height="240" viewBox="0 0 336 240" fill="none" xmlns="http://www.w3.org/2000/svg">
<path d="M234.982 110.25L234.7 219L93.1709 137.286L93.4589 28.5352L234.982 110.25Z" fill="#0078D4"/>
<path d="M234.982 110.25L234.7 219L93.1709 137.286L93.4589 28.5352L234.982 110.25Z" fill="url(#paint0_linear)"/>
<path d="M234.982 110.25L246.234 103.706L245.946 212.456L234.7 219L234.982 110.25Z" fill="#004E99"/>
<path d="M93.46 28.535L104.712 22L246.235 103.706L234.984 110.25L93.46 28.535Z" fill="#0078D4"/>
<path opacity="0.75" d="M100.585 42.333L227.577 116.211V206.918L100.585 133.607V42.333Z" fill="#F0F0F0"/>
<path d="M117.933 175.493L138.609 163.516L186.109 190.735L164.97 202.705L117.933 175.493Z" fill="#0078D4"/>
<path d="M132.409 167.106L138.609 163.516L186.109 190.735L179.949 194.222L132.409 167.106Z" fill="#004E99"/>
<path d="M164.967 205.362V202.705L117.933 175.494V178.582L164.967 205.362Z" fill="#0078D4"/>
<path d="M164.967 205.362V202.705L117.933 175.494V178.582L164.967 205.362Z" fill="url(#paint1_linear)"/>
<path d="M188.348 192.235L164.966 205.362V202.705L186.105 190.735L188.348 192.235Z" fill="#141E2F"/>
<path d="M274.006 31.378C266.069 26.8 258.862 26.362 253.651 29.378L243.376 35.319C248.587 32.3 255.794 32.738 263.731 37.319C279.558 46.474 292.316 68.582 292.268 86.795C292.219 95.804 289.054 102.183 283.892 105.154L294.167 99.164C299.329 96.193 302.494 89.814 302.543 80.805C302.591 62.641 289.833 40.533 274.006 31.378Z" fill="#1D4A79"/>
<path d="M263.731 37.3191C279.558 46.4741 292.316 68.5821 292.268 86.7461C292.22 104.91 279.368 112.263 263.537 103.108C247.71 94.0001 234.951 71.8941 235 53.7301C235.049 35.5171 247.905 28.2121 263.731 37.3191Z" fill="#185A97"/>
<path d="M85.7418 90.6492C77.8038 86.0722 70.5968 85.6332 65.3868 88.6492L55.1118 94.5942C60.3218 91.5742 67.5288 92.0132 75.4668 96.5942C91.2938 105.749 104.052 127.858 104.003 146.07C103.955 155.079 100.789 161.458 95.6278 164.429L105.903 158.439C111.064 155.469 114.23 149.089 114.278 140.08C114.327 121.913 101.569 99.8002 85.7418 90.6492Z" fill="#32B0E7"/>
<path d="M75.467 96.5901C91.294 105.745 104.052 127.854 104.003 146.018C103.954 164.182 91.1 171.535 75.272 162.38C59.446 153.273 46.687 131.165 46.736 113C46.785 94.7881 59.64 87.4841 75.467 96.5901Z" fill="#45CAF2"/>
<path d="M255.286 43.1V45.94C253.824 45.113 253.093 45.578 253.093 47.389L253.041 58.3C253.041 60.783 252.362 61.973 250.901 61.766C252.348 63.3802 253.099 65.5009 252.989 67.666L252.937 78.476C252.899 79.312 253.059 80.1453 253.406 80.907C253.739 81.5374 254.247 82.0583 254.868 82.407C254.92 82.459 254.968 82.459 255.025 82.507L255.125 85.407C254.968 85.307 254.76 85.201 254.603 85.097C253.158 84.2117 251.885 83.0727 250.845 81.735C249.955 80.1984 249.521 78.4403 249.592 76.666L249.644 65.287C249.709 64.5052 249.559 63.7204 249.209 63.0182C248.859 62.3159 248.323 61.723 247.66 61.304V58.457C249.018 59.285 249.696 58.664 249.696 56.699V45.578C249.696 43.509 250.114 42.216 250.949 41.803C251.84 41.44 253.3 41.958 255.286 43.1ZM273.086 53.238C274.531 54.1234 275.804 55.2623 276.844 56.6C277.734 58.1366 278.169 59.8947 278.097 61.669L278.045 72.997C277.98 73.7787 278.13 74.5634 278.48 75.2655C278.83 75.9676 279.366 76.5603 280.029 76.979V79.82C278.671 79.044 277.993 79.665 277.993 81.631L277.941 92.648C277.941 94.717 277.523 96.01 276.688 96.423C275.8 96.785 274.388 96.423 272.355 95.285V92.441C273.817 93.268 274.548 92.854 274.548 90.993L274.6 80.079C274.6 77.596 275.278 76.407 276.74 76.613C275.301 74.9941 274.552 72.8768 274.652 70.713L274.704 59.903C274.738 59.0504 274.577 58.2012 274.234 57.42C273.872 56.8119 273.372 56.2979 272.773 55.92C272.721 55.868 272.668 55.868 272.616 55.82L272.516 52.92C272.712 53.0142 272.902 53.119 273.086 53.234V53.238Z" fill="#2195DC"/>
<path d="M285.853 96.7148C298.378 104.045 308.445 121.864 308.387 136.465C308.329 151.066 298.203 156.965 285.677 149.636C273.21 142.306 263.085 124.487 263.143 109.886C263.2 95.2248 273.327 89.3248 285.853 96.7148Z" fill="#2195DC"/>
<path d="M287.96 95.5228L287.831 95.4838C281.596 91.8278 275.888 91.4838 271.806 93.9138L269.757 95.1058C273.857 92.6618 279.531 92.9598 285.857 96.7148L285.901 96.6888L285.915 96.7148C298.382 104.045 308.508 121.864 308.449 136.465C308.391 143.736 305.874 148.865 301.835 151.245L303.884 150.053C307.923 147.61 310.439 142.485 310.498 135.274C310.552 120.672 300.485 102.853 287.96 95.5228Z" fill="#0078D4"/>
<path d="M73.512 128.294C73.4669 128.076 73.3851 127.867 73.27 127.677L72.625 126.565L72.609 126.542L63.4 110.262C63.197 109.919 62.922 109.624 62.594 109.397C62.4782 109.315 62.3431 109.264 62.2018 109.25C62.0606 109.235 61.918 109.258 61.788 109.315L61.144 109.685C60.7 109.932 60.7 110.797 61.144 111.579L69.566 126.443V126.483L61.3 131.341C60.856 131.588 60.856 132.453 61.3 133.235L61.944 134.347C62.1471 134.69 62.4221 134.985 62.75 135.212C62.8661 135.294 63.0012 135.344 63.1423 135.358C63.2835 135.373 63.4259 135.351 63.556 135.294L73.268 129.571C73.593 129.406 73.673 128.871 73.512 128.294ZM87.26 146.646C87.5946 146.869 87.8713 147.168 88.0675 147.519C88.2636 147.87 88.3735 148.262 88.388 148.664V150.393C88.388 151.134 87.864 151.422 87.26 151.052L71.785 141.952C71.4507 141.729 71.174 141.43 70.9779 141.079C70.7818 140.728 70.6718 140.336 70.657 139.934V138.205C70.657 137.464 71.181 137.175 71.785 137.546L87.26 146.646Z" fill="#D5F9FD"/>
<path d="M275.964 123.076C276.476 123.776 276.733 124.63 276.693 125.496C276.693 126.24 276.511 126.796 275.964 126.985C275.655 127.098 275.321 127.123 274.999 127.058C274.676 126.992 274.379 126.838 274.139 126.613C273.399 126.137 272.776 125.5 272.315 124.751C271.85 124.029 271.597 123.191 271.586 122.332C271.586 121.587 271.768 121.032 272.315 120.842C272.624 120.729 272.958 120.704 273.28 120.77C273.602 120.835 273.9 120.99 274.139 121.215C274.959 121.585 275.61 122.249 275.964 123.076ZM272.315 112.653C271.91 111.971 271.661 111.208 271.586 110.419C271.586 109.675 271.768 109.119 272.315 108.93C272.624 108.817 272.958 108.792 273.28 108.857C273.602 108.923 273.899 109.077 274.139 109.302C274.879 109.778 275.503 110.414 275.964 111.164C276.476 111.863 276.734 112.717 276.693 113.583C276.693 114.328 276.511 114.883 275.964 115.072C275.651 115.139 275.327 115.14 275.013 115.076C274.699 115.012 274.401 114.884 274.139 114.7C273.395 114.153 272.773 113.455 272.315 112.653ZM281.983 107.253L291.283 140.198L287.452 137.778L278.152 105.019L281.983 107.253ZM290.895 111.474L300.195 144.419L296.367 142L287.067 109.241L290.895 111.474Z" fill="#45CAF2"/>
<path d="M42.7098 47.4648C55.2348 54.7998 65.2998 72.6138 65.2438 87.2148C65.1878 101.816 55.0598 107.715 42.5338 100.386C30.0668 93.0558 19.9418 75.2368 19.9998 60.6358C20.0588 45.9748 30.1838 40.0748 42.7098 47.4648Z" fill="#ACF3FD"/>
<path d="M44.8168 46.2728L44.7318 46.2578C38.4798 42.5778 32.7538 42.2238 28.6628 44.6638L26.6138 45.8558C30.7138 43.4118 36.3888 43.7098 42.7138 47.4648L42.7638 47.4358L42.7718 47.4648C55.2348 54.7998 65.3608 72.6138 65.2998 87.2158C65.2418 94.4858 62.7248 99.6158 58.6868 101.995L60.7348 100.803C64.7738 98.3598 67.2898 93.2348 67.3488 86.0228C67.4098 71.4218 57.3418 53.5998 44.8168 46.2728Z" fill="#84ECFD"/>
<path d="M58.0491 83.2839L57.1491 83.7249L54.9001 85.0479L50.4001 87.6949L49.5001 87.2539L48.1491 85.4889L48.5991 84.6069L55.3531 80.6379L48.1531 68.7299V67.8479L49.5041 67.4069H49.9541L57.1541 79.7559L58.0541 81.5199C58.2712 81.7627 58.3908 82.0772 58.3898 82.4029C58.3889 82.7286 58.2675 83.0424 58.0491 83.2839ZM35.5351 60.7909L34.6351 59.0269L34.1851 58.5859L26.9851 62.5549L26.0851 62.9959C25.6351 63.4369 25.6351 63.8779 26.0851 64.7599L26.9851 66.5239L29.6851 71.3759L33.7381 78.4329L34.6381 78.8739L35.5381 77.9919V77.1099L28.7811 65.6419L35.5351 61.6729V60.7909ZM44.5411 61.2319L37.3411 82.4019L37.7911 82.8429L39.1421 84.6069H40.0421L47.2421 63.4369L46.7921 62.5549L44.9921 61.2319H44.5411Z" fill="white"/>
<path d="M186.277 124.134C188.011 129.236 188.93 134.58 189 139.969C189 157.631 177.5 165.244 162.677 158.545C161.639 158.098 160.628 157.59 159.651 157.022C158.423 156.386 157.301 155.564 156.323 154.586H156.023C141.2 143.928 130 123.221 130 105.863C129.887 101.313 130.928 96.8081 133.026 92.7688C137.262 85.4608 145.431 83.0248 154.81 86.6788C155.372 86.6901 155.91 86.9068 156.323 87.2878C157.231 87.8968 158.441 88.5058 159.349 89.1148C160.188 89.7365 161.103 90.2483 162.072 90.6378C162.672 90.9378 162.979 91.2468 163.585 91.5508C173.569 98.8588 181.738 110.736 185.974 123.221L186.274 123.521L186.277 124.134ZM158.138 132.965V110.431L145.431 103.123C144.661 106.727 144.256 110.399 144.221 114.085C144.333 118.084 144.839 122.061 145.733 125.961L158.138 132.965ZM161.164 111.954V134.488L172.964 141.188C173.932 137.925 174.442 134.542 174.477 131.139C174.539 126.945 174.133 122.758 173.267 118.654L161.164 111.954ZM167.215 157.022C173.872 158.545 179.621 156.109 182.949 150.932L174.779 146.059C172.964 150.932 170.241 154.89 167.215 157.022ZM184.159 148.191C185.426 145.102 186.044 141.785 185.974 138.447C186.01 134.093 185.293 129.766 183.856 125.657L175.687 120.785C176.404 124.91 176.809 129.084 176.897 133.27C176.885 136.675 176.375 140.06 175.385 143.319L184.159 148.191ZM132.723 107.386C132.733 111.413 133.345 115.416 134.538 119.262L142.708 124.134C141.753 120.355 141.345 116.458 141.497 112.563C141.399 108.87 141.806 105.182 142.708 101.6L134.841 97.0318C133.439 100.303 132.718 103.826 132.723 107.386ZM135.749 123.525C138.88 132.509 144.059 140.641 150.877 147.278C147.733 141.18 145.297 134.744 143.615 128.093L135.749 123.525ZM158.138 152.759V136.315L146.638 129.615C149.059 138.446 152.689 146.972 156.623 151.844C157.231 152.15 157.533 152.454 158.138 152.759ZM158.138 107.081V91.2468C157.351 90.892 156.543 90.5867 155.718 90.3328C152.692 90.0328 148.759 93.3778 146.338 100.382L158.138 107.081ZM182.646 121.394C179.714 113.452 175.183 106.197 169.333 100.078C171.988 105.515 174.019 111.235 175.385 117.13L182.646 121.394ZM161.769 154.894C165.703 154.594 169.333 150.327 171.754 144.236L161.164 138.146V154.59C161.327 154.753 161.54 154.859 161.769 154.89V154.894ZM161.164 93.0778V108.6L172.364 115.3C169.943 105.251 166.01 97.3338 162.984 94.2888C162.374 93.9868 161.769 93.3778 161.164 93.0738V93.0778ZM149.064 88.5098C143.617 88.2048 139.079 90.0328 136.356 94.2958L143.315 98.5588C144.442 94.8147 146.407 91.3766 149.062 88.5058L149.064 88.5098Z" fill="#2195DC"/>
<defs>
<linearGradient id="paint0_linear" x1="164.077" y1="28.5352" x2="164.077" y2="219" gradientUnits="userSpaceOnUse">
<stop stop-color="#69E2FF"/>
<stop offset="1" stop-color="white" stop-opacity="0"/>
</linearGradient>
<linearGradient id="paint1_linear" x1="141.45" y1="175.494" x2="141.45" y2="205.362" gradientUnits="userSpaceOnUse">
<stop offset="0.002" stop-color="#69E2FF"/>
<stop offset="0.031" stop-color="#6DE3FF" stop-opacity="0.97"/>
<stop offset="1" stop-color="white" stop-opacity="0"/>
</linearGradient>
</defs>
</svg>